<?xml version="1.0" encoding="UTF-8"?>
<svg width="200" height="200" viewBox="0 0 200 200" xmlns="http://www.w3.org/2000/svg">
  <!-- 渐变定义 -->
  <defs>
    <linearGradient id="pawGradient" x1="0%" y1="0%" x2="100%" y2="100%">
      <stop offset="0%" stop-color="#4D90FE"/>
      <stop offset="50%" stop-color="#7B68EE"/>
      <stop offset="100%" stop-color="#FF69B4"/>
    </linearGradient>
  </defs>
  
  <!-- 猫爪主体 -->
  <g transform="translate(20, 20) scale(0.8)">
    <!-- 爪子掌垫 -->
    <path d="M100,100 C130,85 160,90 170,115 C180,140 165,170 135,175 C105,180 80,150 85,125 C90,100 85,110 100,100 Z" 
          fill="white" stroke="black" stroke-width="8" stroke-linejoin="round"/>
    
    <!-- 四个肉垫 -->
    <ellipse cx="105" cy="105" rx="15" ry="12" fill="url(#pawGradient)" stroke="black" stroke-width="3"/>
    <ellipse cx="140" cy="105" rx="15" ry="12" fill="url(#pawGradient)" stroke="black" stroke-width="3"/>
    <ellipse cx="125" cy="135" rx="15" ry="12" fill="url(#pawGradient)" stroke="black" stroke-width="3"/>
    
    <!-- 大肉垫 -->
    <ellipse cx="125" cy="160" rx="25" ry="18" fill="url(#pawGradient)" stroke="black" stroke-width="3"/>
    
    <!-- 爪尖 -->
    <path d="M90,90 C80,65 85,40 100,30 C105,25 110,35 105,45 C100,55 105,75 110,90 Z" 
          fill="url(#pawGradient)" stroke="black" stroke-width="5" stroke-linejoin="round"/>
    <path d="M125,90 C120,60 130,35 145,25 C150,20 155,30 150,40 C145,50 140,70 140,90 Z" 
          fill="url(#pawGradient)" stroke="black" stroke-width="5" stroke-linejoin="round"/>
    <path d="M160,100 C170,75 190,60 205,55 C210,53 212,63 205,70 C195,80 180,90 175,105 Z" 
          fill="url(#pawGradient)" stroke="black" stroke-width="5" stroke-linejoin="round"/>
  </g>
</svg> 